<?xml version="1.0" encoding="UTF-8"?>
<!-- Generator: Adobe Illustrator 22.1.0, SVG Export Plug-In . SVG Version: 6.00 Build 0)  -->
<svg version="1.1" id="Laag_1" xmlns="http://www.w3.org/2000/svg" xmlns:xlink="http://www.w3.org/1999/xlink" x="0px" y="0px" viewBox="0 0 443 242.4" style="enable-background:new 0 0 443 242.4;" xml:space="preserve">
<style type="text/css">
	.st0{fill:#2093D5;}
	.st1{fill:#14387F;}
</style>
<path class="st0" d="M214,216.9v12.2l0.1,5.4l-9.4-17.6h-4.6v25.4h4.1v-12.2l-0.1-5.4l9.4,17.6h4.6v-25.4H214z M232.9,216.9v3.8h6.1  l4.5-0.1l-10.9,18.7v3h16.5v-3.8h-6.7l-4.5,0.1l10.9-18.7v-3H232.9z M254.2,216.9v25.4h15.1v-3.8h-10.8v-7.3h9.1v-3.8h-9.1v-6.8  h10.8v-3.8h-15.1V216.9z M274.5,216.9v25.4h15.1v-3.8h-10.8v-7.3h9.1v-3.8h-9.1v-6.8h10.8v-3.8h-15.1V216.9z M162.1,221.8l2.6,11  h-5.3L162.1,221.8z M159,216.8l-6.7,25.6h4.7l1.4-5.8h7.2l1.4,5.8h4.7l-6.7-25.6H159z M185.6,221.8l2.6,11h-5.3L185.6,221.8z   M182.6,216.8l-6.7,25.6h4.7l1.4-5.8h7.2l1.4,5.8h4.7l-6.7-25.6H182.6z"/>
<path class="st0" d="M276.1,202.1v-17.8h2.9c4.5,0,6.2,2.5,6.2,8.3v1.3c0,5.7-1.7,8.3-6.2,8.3h-2.9V202.1z M289.7,193.8v-1.3  c0-8.8-3.3-12.1-10.4-12.1h-7.5v25.4h7.5C286.4,205.9,289.7,202.6,289.7,193.8 M256.9,185.3l2.6,11h-5.3L256.9,185.3z M253.8,180.3  l-6.7,25.6h4.7l1.4-5.8h7.2l1.4,5.8h4.7l-6.7-25.6H253.8z M239.5,184.3h6.1v-3.8h-16.5v3.8h6.1v21.6h4.4v-21.6H239.5z M215.1,194.8  c3.9,0.5,5.1,1.7,5.1,3.9v0.2c0,2.1-1.6,3.6-4.3,3.6h-0.3c-2.7,0-4.4-1.6-4.4-5.2h-4.4v0.3c0,5.8,3.1,8.7,8.9,8.7  c5.7,0,8.9-2.8,8.9-7.6v-0.4c0-4.5-2.6-6.5-8.2-7.2c-4-0.6-5-1.7-5-3.8v-0.2c0-2,1.6-3.3,4-3.3h0.3c3,0,4.3,1.7,4.3,5.5h4.4v-0.8  c0-5.7-2.6-8.6-8.7-8.6c-5.5,0-8.7,2.9-8.7,7.4v0.3C207.1,191.9,209.5,194.1,215.1,194.8 M177.4,180.4v25.4h15.1V202h-10.8v-7.3h9.1  V191h-9.1v-6.8h10.8v-3.8H177.4z M158.1,202.1v-17.8h2.9c4.5,0,6.2,2.5,6.2,8.3v1.3c0,5.7-1.7,8.3-6.2,8.3h-2.9V202.1z M171.7,193.8  v-1.3c0-8.8-3.3-12.1-10.4-12.1h-7.5v25.4h7.5C168.4,205.9,171.7,202.6,171.7,193.8"/>
<g>
	<path class="st1" d="M344.8,80.3c-1,4.3-2.2,8.6-3.4,12.8c-2.1,7.7-4.2,15.3-6.4,23c-0.2,0.7-0.8,2-1.4,2c-0.7,0-1.1-1.3-1.3-2.6   c-0.8-5.2,1-12.9,2.5-18.6c1.8-6.6,2.8-8.7,5.1-15c1.2-2.7,3.3-4.6,4.5-4.1C344.9,77.9,345,79.5,344.8,80.3 M254.4,90.5   c0.6-2.7,1.2-5.4,2.1-8.1c0.8-2.6,1.9-5.1,3-7.5c0.9-1.8,1.5-1.7,2.6,0.1c1.1,1.7,1.2,3.4,1.2,4.9c-0.1,5-1.3,9-5.1,11.7   c-0.4,0.3-1.2,0.7-1.7,0.9c-1.2,0.2-2.6,0.4-2.6,0.4S254.3,91.2,254.4,90.5 M374.9,117.5c-0.6-2.1-1.2-4.2-1.5-6.3   c-0.8-6.9-1.4-13.8-2.1-20.7c-0.3-3.2-0.6-6.5-0.8-9.7c-0.2-2.5-0.3-5-0.3-7.5c-0.1-2.9-0.2-20.3,0-26.1c0.2-5.3,1.1-10.6,1.6-16   c0.7-7,1.2-13.9,1.3-20.9c0-4.5-3.1-7.5-6.7-8.6c-2.7-0.7-5.4-1.1-8-1.7c-0.9-0.2-1,0.3-1.1,1c-0.8,5-1.7,9.9-2.5,14.9   c-1.9,11-4.7,21.8-5.8,32.9c-0.4,4.1-1,8.2-1.4,12.3c-0.3,2.8-0.4,5.6-0.7,8.3c-0.1,1.1-0.5,1.9-1.8,2c-5,0.6-8.6,3.3-11.2,7.5   c-4.6,7.5-7.8,15.6-9.4,24.2c-0.7,3.5-1.2,7-2,10.4c-0.5,2.4-2.2,7.2-3.2,7.2c-0.6-0.2-1-2-1.1-2.5c-0.3-2.9-0.2-5.2-0.4-8.1   c-0.1-2.2,0.5-18.9,0.5-19.3c0.2-3.5,0.6-9.1,0.4-12.6c-0.1-1.6-0.1-2.7-1-4.2c-0.5-0.9-2-1.6-3-1.8c-3.2-0.6-8.4-0.1-11.8,3.4   c-4.8,5.1-7.4,10.2-10.5,16.5c-1.3,2.7-2.2,5.1-3.7,7.7c-0.2,0.3-0.7,0.9-1.1,0.8c-0.3-0.1-0.3-0.9-0.3-1.3   c0.1-1.6,0.3-2.3,0.5-3.9c0.3-2.3,0.5-2.7,1-5c0.8-4.3,1.9-8.5,2.6-12.8c0.5-3.3,0.6-6.6,1.1-9.9c0.2-1.6-0.1-2.9-1.4-3.8   c-1.8-1.4-3.7-2.7-5.7-3.9c-1.6-0.9-2.5-0.5-3.2,1.2c-0.6,1.4-1.1,2.8-1.8,4.1C279,69.2,274,81,270.3,94.8   c-0.7,3.5-1.3,5.9-2.4,8.9c-1.2,3.5-2.7,7-4.3,10.3c-1.6,3.2-3.4,6.4-5.3,9.4c-0.5,0.8-1.9,1.7-2.6,1.5c-0.9-0.3-1.7-1.6-1.9-2.5   c-0.6-2.9-1.2-5.9-1.3-8.8c-0.1-4.3,0.2-8.7,0.5-13c0.1-1.5,0.8-2.7,2.4-3.2c1.3-0.4,2.6-0.8,3.8-1.5c1.3-0.7,2.7-1.3,3.7-2.3   c4.7-6.1,4.3-9.6,4.5-12.5c0.2-3-0.1-6.7-1.9-9.9c-1.7-3-3.9-4.3-7.2-3.3c-2.5,0.7-5,1.8-7.5,2.7c-2.9,1.1-5.2,3.2-6.6,5.8   c-1.7,3.1-3.1,6.5-4.4,9.8c-1.8,4.5-3.3,9-4,13.9c-1,6.9-1.5,13.6,0.2,20.4c1.5,6,6.5,11.8,13,12.4c2.3,0.2,4.8,0,7.1-0.4   c2.7-0.5,5.6-1.1,7.1-3.9c1.7-3,3.3-6.1,4.9-9.1c0.4-0.8,0.8-1.7,1.4-2.9c0.9,2.5,1.5,4.6,2.5,6.6c0.5,1.1,1.5,2.2,2.6,2.7   c2.8,1.2,5.8,1.5,8.8,1c1.2-0.2,2.7-1,3.4-2c2.4-3.2,4.2-6.8,4.9-10.9c0.6-3.7,1.7-7.3,2.8-10.8c2.7-8.6,5.7-14,8.7-18.9   c0.9-1.5,1.9-2.9,3.5-4.7c0.9-0.9,2-1.5,2.8-1.3c1.3,0.3-0.5,4.6-1.1,5.9c-1.1,2.6-2.5,5-3.4,7.6c-3.1,8.7-5.5,17.5-5.2,26.9   c0.1,2.2,0.2,4.5,0.6,6.7c0.3,1.8,1,3.6,1.6,5.4c0.1,0.4,0.3,0.9,0.6,1.3c1.3,1.7,2.9,2.9,5.1,3.1c2.2,0.2,4.5,0.4,6.7,0.3   c3.1-0.1,5.7-2.5,6.6-5.5c0.9-2.8,2.1-5.5,3.3-8.6c0.9,0.9,1.4,1.6,2.1,2.2s1.9,1.5,2.7,1.8c4.6,1.6,9.5,0.1,12.3-4.9   c1.5-2.6,2.5-5.6,3.4-8.5c1.1-3.5,1.9-7.1,2.8-10.6c0.2-0.6,0.4-1.1,0.6-1.7c0.2,0,0.3,0,0.5,0c0.2,1.1,0.5,2.3,0.7,3.4   c0.5,4.7,0.9,9.3,1.4,14c0.7,6.2,1.8,12.4,3.9,18.3c1.3,3.5,2.6,7,4.1,10.4s3.9,6.2,7.1,8.3c2.4,1.6,4.9,2.4,7.7,1.9   c2.6-0.4,3.2-1.1,3.1-3.8c-0.1-2.5-0.2-5,0.1-7.5c0.4-3.1,1.1-6.1,1.9-9.2c0.7-2.6,0.2-5-0.5-7.4C377,124.5,375.9,121,374.9,117.5"/>
	<path class="st1" d="M188.1,110.8c0.9,0.8,2.6,4,2.9,8.5c0.1,1.6,0.1,2.6-0.1,3.7c-0.3,1.8-0.4,3.3-1.1,5.3c-0.5,1.2-1.8,2-3.3,1.9   c-4.2-0.5-8.9-4.8-9.9-9c-0.4-1.9,0.1-3.6,0.9-5.3c1.2-2.5,2.4-5,3.4-7.6c0.2-0.5,0.7-1.3,0.7-1.3s0.6,0.3,1,0.5   C184.4,108.5,186.5,109.3,188.1,110.8 M153.7,91.1c-0.1-0.7-0.5-2.9-0.4-2.1c-0.2-0.9,0.5-0.9,0.6-0.1c-0.1-0.7,0.2,1.4,0.3,2.2   C154.3,93.8,153.8,91.6,153.7,91.1 M152.1,95.1c-0.5,6.9-1.7,13.7-4.5,20c-1.2,2.8-3,5.3-4.7,7.8c-1.2,1.8-3.2,2.7-5.3,3.3   c-2,0.6-3.6-0.1-4.6-2.1c-1.5-3.2-1.9-6.6-1.9-11.1c0.3-4.6,1-10,4.1-14.7c1.2-1.9,2.9-3.6,4.7-5c2-1.5,4.3-2.6,6.5-3.9   c1.1-0.6,2.1-1.2,3.1-1.9c1.5-1.1,2.1-1,2.3,0.9C152,90.7,152.2,92.9,152.1,95.1 M134.4,130.1c4.3-0.5,6.2-1.3,7.3-2.7   c0.1-0.1,0.2,0.1,0.3,0.2c-0.3,0.4-1.2,1.7-1.4,2.1c0.4,0,0.4,0,0.8,0c0.2,0,0.4,0,0.6-0.1c-0.8,2-4,2.6-6.7,1.1 M134.8,128.2   c-2.3-0.2-4.4-1.1-6-2.9c-1.3-1.5-2-2.6-2.9-4.3c-0.6-1.3-1.3-3-1.6-4.4c-1.8-6.9-2.1-13.8-0.6-20.8c0.1-0.5,0.3-1,0.4-1.5   c0.2-0.7,0.6-1.6,0.5,0c0-0.9-0.1,1.7-0.3,2.6c-1,4.3-1.3,7-0.3,11.3l0.3,0.8c0.1,0.2,0.3,1.5,0.4,1.6c1.4,1.3,1.4,3,1.6,4.7   c-0.3-0.6-0.4-1.4-0.7-1.9c-0.4-0.6-0.8-0.8-0.6,0.3c0.2,1.4,0.7,2.9,1.1,4.2c0.5,1.5,1,3.1,1.8,4.5c0.8,1.3,1.8,2.6,3,3.5   s5,2.4,4.2,2C135.5,127.8,135.2,128.2,134.8,128.2 M127.7,118.8c0.3,0.7-0.3,0.9-0.4,0.1c0.2,0.8-0.3-1.5-0.4-2.3   C127.1,117.3,127.4,118,127.7,118.8 M257.8,58.8C257.8,58.7,257.8,58.7,257.8,58.8c2.9-0.8,5.8-1.7,8.8-2.5l-0.1-0.1   c-2.7,0.7-9.1,1.9-9.2,1.8c0.4-0.3,0.8-0.6,1.1-0.9c1.1-1,1-1.3-0.2-2c-0.2-0.1-0.4-0.3-0.6-0.5c1.7-1.9,4.2-1.9,6.1-3.1   c5.2-0.8,12.9-2.6,14.6-3.3c0.4-0.2,0.6-0.6,1-0.9c-0.4-0.2-0.8-0.5-1.2-0.5c-2.6-0.2-22.5,3.6-24.8,4.6c-0.3,0-0.7,0.1-1,0.1   c-1,0.1-0.9-1-0.1-1.2c7.5-2.2,15.1-3.5,22.6-5.6c-1.5-0.3-2.9-0.3-4.4-0.4c-2.5-0.1-5-0.5-7.5-0.5c-9.1-0.1-18.2-0.4-27.2,1.6   c-2.8,0.6-3.3,0.2-3.3-2.7c0-5.7,0-11.4,0.2-17.1c0.2-3.5,0.7-6.9,2.6-10c0.6-1.1,0.9-2.6,1-3.9c0.1-4.1-4.8-7.6-8.4-7   c-1.9,0.3-3.9,0.7-5.8,1.1c-2.1,0.5-3.4,2.6-3.1,4.7c0.3,1.9-0.1,3.7-0.8,5.5c-1.8,4.3-3.4,8.8-4.8,13.2   c-2.5,8.3-4.9,17.4-7.4,25.8c-1.2,4-2.8,8.5-4,11.5c-2.8,6.4-6.4,12.5-9.6,18.7c-1.3,2.5-2.7,4.9-3.9,7.4c-0.2,0.4-1.6,2.6-2,3.6   c-0.1-0.1-0.2-0.1-0.3-0.2c-4.4-2.3-8.8-6.4-5.1-13.2c1.3-2.4,2.7-4.6,5.8-5.3c1.4-0.3,3.6-1.2,4.8-2.2c1.7-1.4,1.5-3.6,0.7-5.8   c-0.9-2.3-2.7-3.5-5.1-3.8c-2.2-0.3-9.2,0.1-10.1,0c-1.2-0.1-2.3,0-3,1.2c-1.1,1.9-2.4,3.6-3.4,5.5c-0.8,1.5-1.7,2.4-3.6,2.4   c-2.4,0.4-4.8,0.4-6.6,0.6s-3.5,0.3-5.3,0.5c-1,0.1-1.6-0.3-2.1-1.3c-1.7-3.8-4.8-5.6-8.8-5.9c-2.2-0.2-4.3-1.5-6.7-0.8   c-2,0.6-4.1,0.5-6,1.1c-1,0.3-1.8,0.8-2.8,0.7c-1.2-0.1-2,0.5-1.7,1.9c0.4,2.2-0.2,4.3-1,6.3c-2.6,6.8-4.3,13.8-4.8,21   c-0.7,10.3,1.4,20.2,6,29.4c1.1,2.2,2.5,4.3,4.2,5.9c6,5.4,10.4,5.6,16.3,2.4c3.8-2.1,6.8-5.2,9.3-8.7c3.5-5.1,5.8-10.7,6.8-16.9   c1-6.2,1.5-12.3,0-18.4c-0.8-3.2-2-6.3-3.1-9.5c-0.2-0.7-0.7-1.6,0.3-1.9c1.9-0.7,4.9-1.3,6.9-1.9c0,3.3-0.3,5-0.3,8   c0,3.3,1.4,7.6,3.4,10.2c2.3,3.1,3.9,5,7.2,7.2c0.8,0.5,2.5,1.7,2.5,1.7s-0.7,1.1-1.1,1.6c-1.3,2-2.6,4-3.9,6   c-1.6,2.5-2.3,5.3-2.3,8.3c0.1,6.5,1.4,12.6,4.5,18.4c1.9,3.5,3.9,6.8,7.4,9c1.8,1.1,4.2,0.8,5.3-1c3.3-5.3,5.8-11,7.2-17   c0.8-3.3,1.2-6.7,1.6-10c0.6-5,0.7-9.9-1.7-14.5c-0.8-1.6-2.1-3.2-3.5-4.4c-1.8-1.6-2.6-2.5-4.6-4c-0.6-0.4-2-1.3-2.8-1.9   c-0.1-0.1,5.3-4,6.2-5c2.9-3.1,4.9-5.3,6.7-9.2c2.9-6,5.6-11.1,8.4-17.2c0.8-1.7,1.5-1.9,3.2-1.2c1.6,0.6,1.8,1.8,1.7,3.3   c-0.3,5.1-0.7,10.2-0.9,15.3c-0.3,9-0.7,18-0.7,26.9c0,6.5,1.6,12.7,4.5,18.5c1.1,2.3,2.1,4.6,3.1,6.9c0.3,0.6,0.7,1.2,1,1.9   c0.1,0,0.3-0.1,0.4-0.1c-0.1-0.6-0.3-1.3-0.2-1.9c0.1-0.6,0.4-1.2,0.6-1.8c0.4,0.4,1,0.6,1.3,1.1c1,1.5,1.8,3,2.8,4.6   c1.3-1.2,1.2-2.6,1.2-3.9c0-1.2-0.2-2.4-0.2-3.7c0.1-3.9,0.2-7.9,0.4-11.8c0.2-4.4,0.1-8.9,0.6-13.3c0.8-7.1,2.1-14.1,3-21.2   c0.7-5.3,1.2-11.5,1.8-16.9c0.3-2.5,0.5-3,2.5-3.3C242.5,63.6,250.2,61.1,257.8,58.8C257.8,58.7,257.8,58.8,257.8,58.8"/>
	<path class="st1" d="M114.7,180.2c-0.7,0.1-1.2,0.1-1.7,0.2c-4.5,1.8-9.1,2.8-14,3.2c-0.8,0.1-1.3,0-1.4-0.9   c-0.1-0.8-0.6-1.2-1.5-1c-2.5,0.4-4.9,0.8-7.4,0.9c-1.8,0.1-3.7,1.4-5.4-0.3c-0.1-0.1-0.3,0-0.5,0.1c-2.7,0.3-5.3,0.7-8,1   c-6.7,0.6-13.4,1.6-20.1,1.7c-6.8,0.1-13.6-0.7-20.4-1c-4.4-0.2-8.7,0-13.2,0c0.3,0.1,0.5,0.2,1,0.4c-0.5,0.2-0.7,0.3-1,0.4   c-3,1-6.1,1.9-9.1,2.9c-0.5,0.2-0.9,0.6-1.5,1c0.5,0.3,0.8,0.5,1.2,0.8c-0.9,0.7-1.7,1.4-2.3,1.9c1.4,1.6,2.8,3,2.6,5.3   c0.3,0.1,0.7,0.2,1.3,0.5c-0.6,0.4-1,0.7-1.4,1.1c0.1,0,0.3,0,0.4,0c1.9,0,2.2,0.6,2.3,3.6c0.3,0.1,0.6,0.1,0.8,0.3   c2,1.1,4,1.6,6.3,1.3c0.5-0.1,1-0.1,1.5-0.1c7.4,0.6,14.8,1.1,22.2,1.8c8.1,0.8,16.1,0.9,24.1-0.4c5.8-0.9,11.3-2.6,16.8-4.5   c4.4-1.6,8.7-3.4,13.3-4.1c1.2-0.2,2.4-0.6,3.5-0.9c-3.1,0.3-6,1.4-9.2,0.7c0.2-0.4,0.4-0.7,0.7-0.8c1.5-0.6,3.1-1.3,4.6-1.8   c3.2-1,6.5-1.5,9.3-3.5c1.3-0.9,2.9-1.5,4.6-2.4c-1.3,0.3-2.4,0.5-3.4,0.8c-1.3,0.3-1.3,0.4-2.8-0.1c1.2-0.4,2.7-0.4,2.9-2   c0-0.1,0.2-0.2,0.3-0.2c1.1-0.4,2.2-0.7,3.4-1.1c0.1-0.2,0.2-0.5,0.4-1.1c-1.3,0.5-2.5,1-3.7,1.5c-0.1-0.1-0.1-0.2-0.2-0.3   c0.9-0.6,1.8-1.3,2.5-1.8C112.5,181.5,114.1,181.5,114.7,180.2"/>
	<path class="st1" d="M108.8,85.3c0,1.9-0.3,3.7-0.6,5.6c-1.4,9.3-5.7,16.6-5.6,16.6c-1,1.5-1.6,3-2.7,4.5c-2.6,3.3-6.6,4.7-9.9,6.9   c-0.1,0.1-0.3,0.2-0.5,0.2c-3.1-0.3-5.5,1.5-8.1,2.8c-3.3,1.8-12,7.3-19.8,8.5c-3.5,0.5-12.2,1.4-20.9-5.9   c-6.5-5.5-10.4-14.4-11.1-16.3c-2.7-6.9-4.4-16.3-4.6-18.7c-0.4-4.9-0.8-9.9-0.4-15.7c0.5-6.4,1.8-13.4,4-18.1   c2.6-5.6,6-14.2,18.9-21.8c5.3-3.1,10.5-4.4,14.9-4.9c5.6-0.5,11.1,0.1,16.5,1.4c4.6,1.2,8.9,3.2,12.8,6   c8.2,5.9,13.1,16.4,15.5,25.8C107.7,64.2,109.3,69,108.8,85.3 M92.8,142c1.5-0.8,1.8-1.5,3.3-2.3c1.3-0.7,1.7,0.1,0.3,0.7   c-4.1,3.5-7.3,5.7-11.6,8.4c-2.7,1.7-5.6,2.9-8.5,4.1c-4.3,1.8-8.7,2.9-13.4,2.5c-0.6-0.1-1.2,0-1.8,0c1.2,0.2,3.1,0.4,4.8,0.6   c0,0.1-1.3,0.1-1.2,0.1c-1.8,0-3.6,0.2-5.4,0c-2.9-0.4-5.9-0.8-8.8-1.6c-3.2-0.9-6.3-2.4-9.4-3.6c-0.3-0.1-0.7-0.4-1-0.3   c-1.4,0.5-3.8-0.8-4.7-1.5c-1.5-1.2-9.1-8.2-6.6-6.6c6.8,4.6,9.9,5.6,16.1,7.4c0.7,0.2,7.8,1.4,8.6,1.4c-0.2-0.1-0.5-0.2-0.7-0.2   c0-0.1,0-0.1,0-0.2c2,0,5.4,0.2,7.4,0.2c10,0.1,14.5-1.1,18.8-2.3C83.9,147.3,88.3,144.5,92.8,142 M66.7,18.1   c0.7,0,3.2-0.1,2.1-0.3c-1.9-0.4-6-0.6-9.1-0.6c-1,0-1.1-0.3,0-0.4c1.7-0.2,5.5-0.5,10.8-0.2c0-0.1,0-0.1,0-0.2   c-1.5-0.2-8.9-1.3-5.8-1.3c10.9-0.6,19,2.9,23.6,8.2C87.1,22.6,86,22,85,21.4c0,0.1-0.1,0.1-0.1,0.2c3,2.3,6,4.7,9,7   c1.2,1.3-0.1,0.6-0.4,0.4c-1.5-1.3-6.2-3.7-6.4-3.8c-1.9-0.7-2.7-1.2-4.6-1.8c-2.5-0.8-4.6-1.6-7.1-2.3c-1.5-0.4-3.4-0.7-4.9-1   c-2.2-0.4-5-0.5-7.3-0.7C57,18.9,51,20.6,50.9,20.1C55.1,18.1,63.8,18.1,66.7,18.1 M119.5,60.4c-0.1-1.1-0.3-2.2-0.3-3.2   c-0.1-1.2-0.1-2.4-0.3-3.6c-0.3-1.8-0.7-3.5-1.2-5.2c-0.4-1.6-1-3.2-1.6-4.7c-0.1-0.5-0.3-0.9-0.5-1.4c-2.5-6.4-9.5-17.2-13.2-19.5   c1.5,1.8,2.9,3.3,4.1,5c1.2,1.6,2,3.2,3.1,4.9c-0.1,0.1,0.1,0.2,0,0.3c-3.5-4.6-7-9.1-11.7-12.5c0,0-0.6-0.3-0.2,0.2   c0.2,0.3,0.4,0.5,0.7,0.9c-0.4,0-0.4,0.3-0.9,0c2.4,2.6,4.7,5.2,7,7.7c-0.4,0.3-1.3-0.7-1.3-0.7c-6.4-7.1-12.3-12.5-21.7-15.4   c3.9,1.5,8.4,3.6,10.9,6.3c0.3,0.3-0.8-0.2-1-0.3c-0.7-0.2-0.7,0.1-0.3,0.3c0.4,0.3,0.9,1.8-0.6,0.8c-1.9-1.3-4.4-2.4-6-3.5   c-0.5,0.4,0.5,0.8,0.4,0.8c3.3,2.4,7.2,5.3,10.5,7.7c-0.1,0.1,1.5,1.6-0.9,0c-2.6-1.9-5.1-4-7.9-5.5c-2.9-1.6-5.9-3.2-9-4.2   s-6-1.3-9.2-1.7c-6.5-0.9-10.5-0.4-17.1,0.8c-4.1,0.2,8.6-3.5,16.6-3.6c0-0.1,0-0.3,0-0.4c-3.4-0.1-6.7-0.3-10.1-0.4   c0-0.1,0-0.1,0-0.2c2.7-0.5,8.4-0.5,11.1-1c-0.4-0.2-0.9-0.2-1.3-0.2c-3.9,0.2-8.8-0.4-16.7,1.5C44,11.9,37.4,14,31.6,17.9   c-14.2,9.6-20,19.6-23.6,26c-1.5,2.6-2.6,5.4-3.7,8.2C3.7,54,3.4,56,3,57.6c-0.6,0.3-1,0.4-1.1,0.7c-0.8,1.4-0.7,3-0.9,4.5   c-0.5,3.9-0.8,7.9-1,11.9c-0.1,3,0.1,5.9,0.3,8.9C0.7,88.8,1.8,93.9,3.2,99c0.4,1.3,2.5,8.2,5.1,14.5s8.6,17.3,10.5,20.6   c3.8,6.7,8.4,12.9,14.5,17.7c2.1,1.7,4.3,3.3,6.7,4.6c1.6,0.9,3.5,1.3,5.2,2.1c4.4,2,9,2.7,13.7,2.7c4.4,0,8.7-0.9,13-2   c5-1.3,8.3-2.7,12.9-4.7c1.1-0.5,1.3-0.7,2.3-1.3c0.8-0.5,2.1-1.5,0.9-1c-1.1,0.5-1.1,0.6-2.2,1c-0.4,0.1-2.9,1.4-0.2-0.4   c6.4-4,6.9-5.3,10.1-8.4c2-1.9,1.1-1.2-0.2-0.7c-3.5,2.3-0.4-1.5,1.6-3.1c1.4-1.4,1.2-1.3,0.5-1.8c-0.5-0.3-5,2.9-5.4,2.5   s3-4,5.1-6c0-0.1,1-1.5-0.2-0.5c-0.5,0.2-11.7,5.8-12.1,5.6c-0.1-0.6,12.9-6,14.4-8.5c0.4-0.7-1.1,0.5-1.1-0.3   c0-0.6,0.3-1.8,0.5-2.4c0.2-0.4,0.6-0.8,0.6-1.3c0-1.5,0.9-2.4,2-3.2c0.3-0.2,0.6-0.6,0.8-1c0.8-1.5-1-1.3,2.5-4.6   c0.4-0.7-1.7-2.6-2.4-4.2c-0.4-1-0.6-1.7-0.4-2.7c0.3-1.1,2.8-5.6,3.5-6.7c1.1,0.2-1.1,3.1-1,3.4c0.2-0.3,1-1.3,1.1-1.6   c0.9-1.9,1.2-2.1,2-4.1c1.3-3.4,1.9-5.4,3-9.1c0.5-1.7,0.9-3.1,0.9-3.4c0.9-4.1,3.5-17.5,3.5-17.5c1.6,4-0.4,10-0.5,14   c1.2-6.2,2.7-15.3,2.3-21.6c0-1.2,0-1.9-0.2-2.9c-0.1-0.5-0.2-1.1,0.2-1.7c0.2-0.1,0.4,0.2,0.4,0.4c0.2,0.5,0.3,1.1,0.4,1.7   c0.2,1.3,0.4,2.6,0.6,4c0.1-1.5-0.4-2.8-0.2-4.1c0.1,0.2,0.1,0.4,0.2,0.5s0.3,0.3,0.4,0.3s0.3-0.2,0.3-0.4s-0.1-0.5-0.1-0.7   s0.1-0.7,0.1-0.7c0.1-0.7-0.4-2.1-0.7-3.1c-0.1-0.5-0.3-0.9-0.4-1.4c-0.5-1.8-0.9-3.6-1.4-5.3c-0.1-0.6-0.9-2.6-1.1-3.3   c0.2,0.1,0.9,1.7,1,1.7h0.1l0,0l0,0l0,0c0,0.1,0.1,0.1,0.1,0.2c1.2,3.1,2.1,6.3,2.5,9.6c0,0.2,0.1,0.4,0.1,0.6c0.1,0,0.1,0,0.2,0   C119.5,60.7,119.5,60.5,119.5,60.4"/>
	<path class="st1" d="M430.8,111.1c3.3-3.2,5.3-6.4,8.3-9.9c1.2-1.4,2.8-3.6,4-5c-0.5,0.6-1.9,1.7-2.3,2.1c-3.1,3.6-4.8,5.4-7.9,9   c-1.6,1.8-3.1,3.3-4.9,4.9c-2.3,2-4.7,3.9-7.2,5.7c-0.3,0.2-1,0.4-1.1,0.5c0.4-0.3,1.4-1.4,2.1-2c1.9-1.8,3.7-3.7,5.6-5.6   c0.8-0.8,1.4-1.8,2.2-2.7c1.2-1.3,2.4-2.6,3.7-3.8c1.9-1.9,0.1-0.6-0.3-0.4c-0.3,0.2-0.6,0.5-0.9,0.7c-3.5,3-6.9,6.2-10.6,9   c-5,3.8-10.3,6.9-16.5,8.3c-1.8,0.4-3.9,0.4-5.6-0.2c-3.9-1.4-6.8-4.1-9-7.7c-0.6-1-0.6-1.8,0.2-2.7c2.5-2.8,4.8-5.8,7.4-8.5   c5.7-5.9,7.8-11.1,10-18.1c0.3-1,0.4-2.1,0.5-3.2c0.2-2.5-0.9-5.3-1.1-6.1c1.2,4.2-0.5,7.2-2,10.2c0.3-3.2,1-5.3,1.2-8.4   c0.2-2.9,0.2-6.8-2.6-8.9c-0.9-0.7-1.9-1.5-2.6-2.5c-0.8-1-6-1-9.5,1.5c-5.8,4.3-8.9,10.9-11.3,17.7c-2.2,6.2-3.2,12.5-2.8,19   c0.4,5.1,1.2,9.8,3.1,14.5c1.3,3.3,3.3,6.6,5.4,9.5c2.5,3.5,5.4,5,8.6,6.1c6.4,2.3,10.8,1.6,16.6-0.2c3.2-1,6.1-3,9.1-4.5   c3.9-2,6.7-5.7,8.9-9.4c0.7-1.2,1.2-1.9,1.9-3.1c0.7-1.2,1.9-3.1,2.6-4.4c-0.1-0.1-0.7,0.6-1.3,1.1c-1,0.9-1.5,1.2-2.5,2   c-0.3,0.2-1,0.6-0.8,0.2c2.7-4.5,0.8-2.7,0.8-2.7s-7.1,6-10.9,9.2c-0.2,0.2-0.4,0.4-0.9,0.6c0.3-0.2,0.4-0.2,0,0l0,0   c-0.8,0.4-3.3,1.7-4.3,2.1c-5.5,2.3-1.4,0-0.4-0.6s3.6-1.9,4.3-2.3h-0.1c0.4-0.2,0.3-0.2,0.1,0c0.5-0.3,0.9-0.4,1.2-0.4   c0.1-1.1,0.5-0.7,1.3-1.3C424,117.9,427.4,114.4,430.8,111.1z M387.7,102.2c-0.2,0.3-0.4,0.9-0.7,0.9h-0.2   c-0.9-0.2-0.8-3.8-0.5-5.7c3-17.5,7-21.1,8.5-23.2c0.3-0.3,1.8-1.9,3.5-1.6C399,72.7,403.4,74.1,387.7,102.2z M410.4,124.2   c-1.5,0.8-2.8,1.6-5.7,2.4l0.8-0.6c0.4-0.2,0.7-0.5,1-0.6v-0.5c0.1,0.3,0.2,0.4,0.3,0.2c0.1-0.2,0.3-0.4,0.6-0.5   c0.1,0.3,0.1,0.4,0.1,0.2c0-0.2,0-0.3,0.2-0.3c1.1-0.2,2.4-0.5,3.6-1.2s2.3-1,3.5-1.6C413,122.6,411.9,123.4,410.4,124.2z    M418,119.9c0,0-2.1,1-3,1.4c0.7-0.6,3.1-2.9,2.4-2.3C418.1,118.4,418,119.9,418,119.9z"/>
</g>
<script xmlns=""/></svg>